<svg xmlns="http://www.w3.org/2000/svg" viewBox="0 0 20.5 24.31"><defs><style>.cls-1{fill:#ff9204;stroke:#ff9204;stroke-miterlimit:10;stroke-width:0.75px;}</style></defs><title>banca-personas</title><g id="Layer_2" data-name="Layer 2"><g id="Layer_1-2" data-name="Layer 1"><path class="cls-1" d="M20.11,20.17h0c-.11-.32-.4-1.27-.45-1.38a4.48,4.48,0,0,0-1-1.46,4.23,4.23,0,0,0-1.06-.74A4.48,4.48,0,0,0,16,16.12a6.38,6.38,0,0,0-1,0l-1.56.08h0a4,4,0,0,1,0-3.18,6.75,6.75,0,0,0,1.75-2.75c.58,0,1-.82,1-2,0-1-.29-1.69-.74-1.91V6.33c.08-.61.16-1.24.19-1.88.19-2.73-.56-3.1-1.93-3.52-.11,0-.21-.08-.34-.11A10.21,10.21,0,0,0,10.26.38,10.21,10.21,0,0,0,7.19.82L6.85.93c-1.4.42-2.12.79-1.93,3.52,0,.64.13,1.27.19,1.88v.05a2.12,2.12,0,0,0-.74,1.91c0,1.14.45,2,1,2A6.37,6.37,0,0,0,7.09,13a4.06,4.06,0,0,1,0,3.2h0L5.58,16.1a4.38,4.38,0,0,0-4.84,3c-.05.19-.13.37-.19.56s-.08.24-.13.37a.83.83,0,0,0,.24.87,14.51,14.51,0,0,0,9.05,3,20.29,20.29,0,0,0,10-2.88A.77.77,0,0,0,20.11,20.17ZM7,1.33c.11,0,.21-.08.34-.11A10.09,10.09,0,0,1,10.26.8a10,10,0,0,1,2.94.42l.34.11c1.22.37,1.83.56,1.67,3.12l-.08.87C14.92,4.69,14.58,4.05,14,4c-.93-.11-3.41-.08-3.52-.08a3.1,3.1,0,0,1-2.2-1,.28.28,0,0,0-.16-.05A.15.15,0,0,0,8,2.89a1.16,1.16,0,0,0-.13,1.16C7.27,3.95,6.34,3.9,6,4.29a3.84,3.84,0,0,0-.58,1.19c0-.34-.08-.69-.11-1C5.15,1.91,5.76,1.72,7,1.33ZM5.74,10c0-.05-.05-.11-.11-.11l-.08,0a.1.1,0,0,0-.08,0,.1.1,0,0,1-.08,0c-.26,0-.61-.61-.61-1.59s.29-1.51.58-1.59a.24.24,0,0,0,.16-.16V6.54a6.3,6.3,0,0,1,.77-2c.26-.32,1.35-.19,2,0a.18.18,0,0,0,.21-.11.17.17,0,0,0-.05-.24.73.73,0,0,1-.29-.87,3.37,3.37,0,0,0,2.3,1s2.57,0,3.47.08c.61.08,1,1.54,1,2.12h0v.05h0v0c0,.08.08.13.16.16.29.05.58.71.58,1.59s-.37,1.59-.61,1.59a.1.1,0,0,1-.08,0,.17.17,0,0,0-.16,0,.21.21,0,0,0-.11.11c-.74,2.38-2.51,3.89-4.53,3.89S6.48,12.39,5.74,10Zm1.93,3.44a4.4,4.4,0,0,0,2.59.85,4.34,4.34,0,0,0,2.54-.82,4,4,0,0,0,.26,3l0,0a7.9,7.9,0,0,1-1.24,1.83,2.64,2.64,0,0,1-.26.29c0,.05-.08.08-.11.13a1.83,1.83,0,0,1-1.32.61h0a1.65,1.65,0,0,1-1.27-.58,12.12,12.12,0,0,1-1.51-2.28l0,0A4.19,4.19,0,0,0,7.67,13.45Zm11.86,7.28C9.1,26.6,2.19,21.65.92,20.62a.42.42,0,0,1-.13-.45c.05-.13.08-.24.13-.34s.13-.37.19-.58a3.92,3.92,0,0,1,4-2.73,2.57,2.57,0,0,1,.45,0l1.4.08a12,12,0,0,0,1.61,2.46,2.11,2.11,0,0,0,1.56.71h0a2.12,2.12,0,0,0,1.61-.74c0-.05.08-.08.11-.13a2.9,2.9,0,0,1,.26-.29,7.88,7.88,0,0,0,1.35-2l1.46-.08a5.73,5.73,0,0,1,1,0,4.85,4.85,0,0,1,1.56.42,4.08,4.08,0,0,1,1,.66,4,4,0,0,1,.87,1.3c0,.08.32.93.42,1.35A.34.34,0,0,1,19.53,20.73Z"/></g></g></svg>