<svg xmlns="http://www.w3.org/2000/svg" viewBox="0 0 512 512"><defs><style>.cls-1{fill:#ff9204;}</style></defs><title>banca-empresas</title><g id="Layer_2" data-name="Layer 2"><g id="Layer_1-2" data-name="Layer 1"><path class="cls-1" d="M92.06,53.7H67.7a14.25,14.25,0,0,0,0,28.5H92.06a14.25,14.25,0,1,0,0-28.5Z"/><path class="cls-1" d="M176.2,53.7H151.84a14.25,14.25,0,1,0,0,28.5H176.2a14.25,14.25,0,1,0,0-28.5Z"/><path class="cls-1" d="M260.43,53.7H236.06a14.25,14.25,0,1,0,0,28.5h24.37a14.25,14.25,0,1,0,0-28.5Z"/><path class="cls-1" d="M92.06,120.31H67.7a14.25,14.25,0,0,0,0,28.5H92.06a14.25,14.25,0,1,0,0-28.5Z"/><path class="cls-1" d="M176.2,120.31H151.84a14.25,14.25,0,0,0,0,28.5H176.2a14.25,14.25,0,0,0,0-28.5Z"/><path class="cls-1" d="M260.43,120.31H236.06a14.25,14.25,0,0,0,0,28.5h24.37a14.25,14.25,0,1,0,0-28.5Z"/><path class="cls-1" d="M92.06,186.91H67.7a14.25,14.25,0,0,0,0,28.5H92.06a14.25,14.25,0,0,0,0-28.5Z"/><path class="cls-1" d="M176.2,186.91H151.84a14.25,14.25,0,0,0,0,28.5H176.2a14.25,14.25,0,0,0,0-28.5Z"/><path class="cls-1" d="M260.43,186.91H236.06a14.25,14.25,0,0,0,0,28.5h24.37a14.25,14.25,0,0,0,0-28.5Z"/><path class="cls-1" d="M92.06,253.43H67.7a14.25,14.25,0,0,0,0,28.5H92.06a14.25,14.25,0,1,0,0-28.5Z"/><path class="cls-1" d="M176.2,253.43H151.84a14.25,14.25,0,0,0,0,28.5H176.2a14.25,14.25,0,1,0,0-28.5Z"/><path class="cls-1" d="M260.43,253.43H236.06a14.25,14.25,0,0,0,0,28.5h24.37a14.25,14.25,0,1,0,0-28.5Z"/><path class="cls-1" d="M92.06,320.12H67.7a14.25,14.25,0,1,0,0,28.5H92.06a14.25,14.25,0,1,0,0-28.5Z"/><path class="cls-1" d="M176.2,320H151.84a14.25,14.25,0,1,0,0,28.5H176.2a14.25,14.25,0,1,0,0-28.5Z"/><path class="cls-1" d="M260.43,320H236.06a14.25,14.25,0,1,0,0,28.5h24.37a14.25,14.25,0,1,0,0-28.5Z"/><path class="cls-1" d="M497.84,163H328.13V14.25A14.23,14.23,0,0,0,313.88,0H14.25A14.23,14.23,0,0,0,0,14.25v483.5A14.23,14.23,0,0,0,14.25,512h483.5A14.23,14.23,0,0,0,512,497.75V177.21A14.21,14.21,0,0,0,497.84,163ZM194.5,483.59H133.63V406.19H194.5Zm105,0H222.83V391.86a14.23,14.23,0,0,0-14.25-14.25h-89.2a14.23,14.23,0,0,0-14.25,14.25v91.73H28.41V28.5H299.55Zm184,0H328.13V191.46H483.59Z"/><path class="cls-1" d="M444,220.3H367.58a14.25,14.25,0,0,0,0,28.5H444a14.25,14.25,0,0,0,0-28.5Z"/><path class="cls-1" d="M444,288.92H367.58a14.25,14.25,0,0,0,0,28.5H444a14.25,14.25,0,0,0,0-28.5Z"/><path class="cls-1" d="M444,357.55H367.58a14.23,14.23,0,0,0-14.25,14.25A14.39,14.39,0,0,0,367.58,386H444a14.25,14.25,0,1,0,0-28.5Z"/><path class="cls-1" d="M444,426.09H367.58a14.25,14.25,0,1,0,0,28.5H444a14.25,14.25,0,1,0,0-28.5Z"/></g></g></svg>