<svg xmlns="http://www.w3.org/2000/svg" width="22" height="22" viewBox="0 0 22 22"><defs><style>.a{fill:#10c61e;}.b{fill:#fff;}</style></defs><g transform="translate(-1.8 -1.9)"><circle class="a" cx="11" cy="11" r="11" transform="translate(1.8 1.9)"/><g transform="translate(6.724 8.604)"><path class="b" d="M46.011,66.473c.739.728,1.467,1.456,2.207,2.184.818.807,2.005,2.431,3.215,1.255,1.535-1.49,2.935-3.159,4.4-4.738L57.672,63.2c.739-.8-.448-1.983-1.187-1.187q-2.033,2.184-4.066,4.38c-.65.706-1.311,1.411-1.96,2.117-.022.022-.146.123-.146.157.045-.392.493.291.3-.011a7.039,7.039,0,0,0-.963-.952c-.807-.807-1.624-1.613-2.431-2.408-.8-.773-1.983.414-1.21,1.176Z" transform="translate(-45.761 -61.752)"/></g></g></svg>