<svg xmlns="http://www.w3.org/2000/svg" width="21.947" height="21.947" viewBox="0 0 21.947 21.947"><defs><style>.a{fill:#fff;}</style></defs><g transform="translate(0)"><path class="a" d="M-59.77,157.376a10.986,10.986,0,0,0-10.973,10.973A10.986,10.986,0,0,0-59.77,179.323,10.986,10.986,0,0,0-48.8,168.349,10.986,10.986,0,0,0-59.77,157.376Zm0,19.9a8.941,8.941,0,0,1-8.93-8.931,8.941,8.941,0,0,1,8.93-8.93,8.941,8.941,0,0,1,8.93,8.93A8.941,8.941,0,0,1-59.77,177.28Z" transform="translate(70.743 -157.376)"/><path class="a" d="M-43.055,176.611a1.022,1.022,0,0,0-1.444,0l-2.782,2.782-2.782-2.782a1.022,1.022,0,0,0-1.444,0,1.022,1.022,0,0,0,0,1.445l2.782,2.782-2.782,2.782a1.022,1.022,0,0,0,0,1.445,1.018,1.018,0,0,0,.722.3,1.019,1.019,0,0,0,.722-.3l2.782-2.782,2.782,2.782a1.019,1.019,0,0,0,.722.3,1.018,1.018,0,0,0,.722-.3,1.022,1.022,0,0,0,0-1.445l-2.782-2.782,2.782-2.782A1.022,1.022,0,0,0-43.055,176.611Z" transform="translate(58.255 -169.864)"/></g></svg>