<svg xmlns="http://www.w3.org/2000/svg" viewBox="0 0 30.2 48"><defs><style>.cls-1{fill:#fff;}</style></defs><title>Asset 1</title><g id="Layer_2" data-name="Layer 2"><g id="Layer_1-2" data-name="Layer 1"><path class="cls-1" d="M15.1,25.39a1,1,0,0,0,1-1V12.62a1,1,0,0,0-2,0v11.8a1,1,0,0,0,1,1Zm0,0"/><path class="cls-1" d="M19.7,23.39,15.1,28l-4.6-4.6a1,1,0,0,0-1.38,1.38l5.3,5.3a1,1,0,0,0,1.38,0l5.3-5.3a1,1,0,0,0-1.38-1.38Zm0,0"/><circle class="cls-1" cx="15.1" cy="41.4" r="2.21"/><path class="cls-1" d="M26.42,0H3.78A3.67,3.67,0,0,0,0,3.52v41A3.67,3.67,0,0,0,3.78,48H26.42a3.66,3.66,0,0,0,3.78-3.52v-41A3.66,3.66,0,0,0,26.42,0ZM3.07,4.91A1.92,1.92,0,0,1,5,3H25.15a1.93,1.93,0,0,1,1.93,1.92V6.19h-24ZM2.72,8.4H27.48V35.8H2.72ZM17.08,3.9h.8a.8.8,0,0,1,0,1.6h-.8a.8.8,0,0,1,0-1.6Zm-5.6,0h3.2a.8.8,0,0,1,0,1.6h-3.2a.8.8,0,0,1,0-1.6ZM27.6,43.23a1.93,1.93,0,0,1-1.93,1.92H4.52A1.92,1.92,0,0,1,2.6,43.23V38.15h25Z"/></g></g></svg>