<?xml version="1.0" encoding="utf-8"?>
<!-- Generator: Adobe Illustrator 16.0.3, SVG Export Plug-In . SVG Version: 6.00 Build 0)  -->
<!DOCTYPE svg PUBLIC "-//W3C//DTD SVG 1.1//EN" "http://www.w3.org/Graphics/SVG/1.1/DTD/svg11.dtd">
<svg version="1.1" id="Capa_1" xmlns="http://www.w3.org/2000/svg" xmlns:xlink="http://www.w3.org/1999/xlink" x="0px" y="0px"
	 width="96.316px" height="90.723px" viewBox="0 0 96.316 90.723" enable-background="new 0 0 96.316 90.723" xml:space="preserve">
<g>
	<path fill="#020303" d="M28.148,75.017l-19.8-28.3c-3.9-5.2-5.8-11.4-5.4-17.4c0.9-11.899,10.5-24.199,25.2-24.199
		c6.975,0,12.797,2.771,17.08,6.951c0.584-0.831,1.205-1.63,1.869-2.391C42.066,4.987,35.41,2.117,28.148,2.117
		c-14.8,0-27.1,11.899-28.1,27c-0.4,6.699,1.7,13.6,6,19.3l21,30c0.3,0.398,0.7,0.6,1.2,0.6s1-0.2,1.199-0.6l4.673-6.706
		l-1.841-2.63L28.148,75.017z"/>
	<path fill="#020303" d="M48.108,13.823c0.936,0,1.858,0.049,2.771,0.142c-0.525-0.729-1.082-1.434-1.668-2.107
		c-0.537,0.637-1.041,1.296-1.515,1.977C47.834,13.832,47.971,13.823,48.108,13.823"/>
	<path fill="#020303" d="M19.848,30.817c0-4.594,3.692-8.39,8.284-8.398c0.903-0.937,1.866-1.81,2.884-2.613
		c-0.918-0.244-1.876-0.388-2.868-0.388c-6.2,0-11.3,5.1-11.3,11.399c0,3.166,1.29,6.027,3.357,8.093
		c0.175-1.324,0.434-2.619,0.776-3.881C20.265,33.786,19.848,32.348,19.848,30.817"/>
	<path fill="#020303" d="M48.108,86.723l-12.25-17.508l-1.737,2.496l12.888,18.412c0.3,0.398,0.7,0.6,1.2,0.6s1-0.2,1.2-0.6
		l13.586-19.502l-1.846-2.636L48.108,86.723z"/>
	<path fill="#020303" d="M60.563,20.21c0.81-0.729,1.721-1.34,2.71-1.813c-3.655-2.408-7.876-3.976-12.395-4.434
		c0.765,1.059,1.459,2.171,2.08,3.332C55.738,17.844,58.284,18.851,60.563,20.21"/>
	<path fill="#020303" d="M49.095,16.849c-0.542-0.854-1.132-1.682-1.771-2.474c-0.547,0.827-1.042,1.682-1.493,2.557
		c0.746-0.067,1.503-0.108,2.277-0.108C48.441,16.823,48.768,16.837,49.095,16.849"/>
	<path fill="#020303" d="M23.387,37.686c1.133-5.389,3.997-10.608,8.243-14.482c-1.059-0.498-2.235-0.786-3.481-0.786
		c-0.006,0-0.011,0.001-0.016,0.001c-3.338,3.461-5.838,7.779-7.151,12.61C21.586,36.079,22.407,36.987,23.387,37.686"/>
	<path fill="#020303" d="M76.309,40.723c-0.093-1.267-0.271-2.51-0.52-3.727c-0.83,0.787-1.777,1.444-2.813,1.951
		c0.105,0.692,0.187,1.385,0.231,2.075c0.399,6-1.5,12.2-5.4,17.4l-4.921,7.07l1.843,2.636l5.578-8.006
		C74.609,54.323,76.709,47.523,76.309,40.723"/>
	<path fill="#020303" d="M72.322,35.899c1.001-0.608,1.865-1.421,2.534-2.384c-1.712-5.109-4.771-9.584-8.737-12.971
		c-1.101,0.27-2.111,0.76-2.99,1.424C67.667,25.526,70.844,30.565,72.322,35.899"/>
	<path fill="#020303" d="M31.017,19.805c1.121,0.299,2.175,0.765,3.134,1.375c2.369-1.658,5.069-2.922,8.055-3.65
		c0.491-1.168,1.055-2.296,1.686-3.378C39.109,14.899,34.708,16.894,31.017,19.805"/>
	<path fill="#020303" d="M22.909,41.023c0.003-0.038,0.008-0.075,0.011-0.112c-1.001-0.531-1.917-1.204-2.715-2.001
		c-0.083,0.633-0.153,1.269-0.196,1.913c-0.4,6.7,1.7,13.601,6,19.3l6.271,8.96l1.738-2.498l-5.709-8.161
		C24.409,53.223,22.509,47.023,22.909,41.023"/>
	<path fill="#020303" d="M49.095,16.849c1.333,0.051,2.622,0.203,3.862,0.448c-0.619-1.161-1.315-2.274-2.078-3.333
		c-0.912-0.093-1.836-0.141-2.771-0.141c-0.138,0-0.273,0.008-0.412,0.011c-0.125,0.18-0.252,0.357-0.373,0.541
		C47.962,15.167,48.553,15.995,49.095,16.849"/>
	<polygon fill="#020303" points="34.019,66.584 32.28,69.083 34.121,71.711 35.859,69.215 	"/>
	<path fill="#020303" d="M28.132,22.418c0.005,0,0.011-0.001,0.016-0.001c1.247,0,2.423,0.287,3.482,0.785
		c0.793-0.724,1.632-1.4,2.52-2.021c-0.959-0.611-2.013-1.077-3.134-1.376C29.998,20.608,29.035,21.482,28.132,22.418"/>
	<path fill="#020303" d="M20.982,35.029c-0.343,1.262-0.602,2.557-0.775,3.881c0.797,0.797,1.713,1.471,2.714,2.001
		c0.086-1.075,0.241-2.153,0.467-3.225C22.407,36.987,21.587,36.079,20.982,35.029"/>
	<path fill="#020303" d="M39.809,42.523c0-1.832,0.594-3.532,1.591-4.92c-0.379-1.14-0.686-2.294-0.92-3.459
		c-2.246,2.082-3.671,5.06-3.671,8.379c0,4.646,2.775,8.628,6.715,10.406l1.754-2.521C42.083,49.23,39.809,46.126,39.809,42.523"/>
	<path fill="#020303" d="M48.621,50.897l-2.028,2.911c0.497,0.067,1.001,0.114,1.517,0.114c1.01,0,1.982-0.146,2.915-0.399
		l-1.87-2.673C48.978,50.872,48.8,50.885,48.621,50.897"/>
	<path fill="#020303" d="M56.409,42.523c0,3.19-1.781,5.993-4.406,7.413l1.721,2.461c3.385-1.969,5.687-5.646,5.687-9.874
		c0-3.128-1.26-5.958-3.284-8.017c-0.181,1.303-0.451,2.596-0.811,3.871C56.008,39.605,56.409,41.02,56.409,42.523"/>
	<path fill="#020303" d="M43.098,32.325c0.15,1.028,0.369,2.052,0.648,3.066c1.267-0.798,2.757-1.269,4.362-1.269
		c1.755,0,3.376,0.556,4.714,1.495c0.21-1.075,0.342-2.157,0.408-3.239c-1.543-0.797-3.28-1.256-5.122-1.256
		C46.311,31.123,44.613,31.563,43.098,32.325"/>
	<path fill="#020303" d="M48.108,50.923c-0.997,0-1.946-0.188-2.831-0.515l-1.753,2.521c0.96,0.433,1.991,0.73,3.068,0.879
		l2.028-2.911C48.451,50.906,48.281,50.923,48.108,50.923"/>
	<path fill="#020303" d="M53.23,32.378c-0.064,1.083-0.197,2.164-0.407,3.24c1.021,0.718,1.874,1.662,2.491,2.759
		c0.359-1.276,0.63-2.568,0.812-3.872C55.283,33.649,54.304,32.934,53.23,32.378"/>
	<path fill="#020303" d="M46.892,13.854c-0.524-0.619-1.08-1.215-1.663-1.785c-0.473,0.675-0.921,1.368-1.338,2.084
		C44.875,13.999,45.876,13.898,46.892,13.854"/>
	<path fill="#020303" d="M96.27,26.9C95.169,11.9,82.87,0,68.07,0c-8.292,0-15.798,3.736-20.972,9.678
		c0.739,0.689,1.447,1.414,2.113,2.179C53.608,6.633,60.084,3,68.069,3c14.7,0,24.301,12.3,25.101,24.2
		c0.399,6-1.5,12.199-5.399,17.399l-19.7,28.3l-3.338-4.771l-1.735,2.492L66.97,76.3c0.3,0.398,0.699,0.6,1.199,0.6s1-0.199,1.2-0.6
		l20.899-30C94.569,40.5,96.669,33.7,96.27,26.9"/>
	<path fill="#020303" d="M46.892,13.854c0.268-0.012,0.536-0.016,0.805-0.02c0.474-0.681,0.979-1.34,1.515-1.978
		c-0.666-0.765-1.374-1.488-2.113-2.179c-0.664,0.761-1.286,1.561-1.869,2.391C45.812,12.639,46.366,13.235,46.892,13.854"/>
	<polygon fill="#020303" points="62.888,65.494 61.15,67.987 62.994,70.622 64.731,68.129 	"/>
	<path fill="#020303" d="M42.205,17.53c1.166-0.284,2.375-0.486,3.625-0.599c0.452-0.875,0.947-1.729,1.494-2.556
		c-0.142-0.177-0.286-0.35-0.433-0.521c-1.015,0.045-2.017,0.146-3.002,0.299C43.26,15.235,42.696,16.363,42.205,17.53"/>
	<path fill="#020303" d="M47.697,13.833c-0.269,0.004-0.537,0.008-0.805,0.02c0.146,0.172,0.291,0.345,0.433,0.521
		C47.445,14.191,47.572,14.014,47.697,13.833"/>
	<path fill="#020303" d="M49.154,50.849l1.871,2.673c0.955-0.259,1.859-0.637,2.698-1.126l-1.721-2.461
		C51.134,50.405,50.173,50.719,49.154,50.849"/>
	<path fill="#020303" d="M43.746,35.392c-0.279-1.015-0.498-2.038-0.648-3.066c-0.957,0.48-1.836,1.094-2.618,1.817
		c0.234,1.166,0.541,2.32,0.92,3.459C42.032,36.722,42.828,35.97,43.746,35.392"/>
	<path fill="#020303" d="M68.069,20.3c4.602,0,8.301,3.8,8.301,8.4c0,1.785-0.563,3.446-1.514,4.814
		c0.379,1.132,0.691,2.293,0.935,3.481c2.192-2.078,3.579-5.021,3.579-8.296c0-6.301-5.101-11.4-11.301-11.4
		c-1.713,0-3.336,0.401-4.797,1.098c0.992,0.654,1.941,1.374,2.846,2.146C66.744,20.391,67.396,20.3,68.069,20.3"/>
	<path fill="#020303" d="M63.128,21.968c0.879-0.664,1.891-1.154,2.99-1.424c-0.905-0.773-1.854-1.493-2.847-2.147
		c-0.989,0.474-1.9,1.084-2.71,1.813C61.459,20.744,62.316,21.332,63.128,21.968"/>
	<path fill="#020303" d="M72.322,35.899c0.279,1.01,0.5,2.027,0.656,3.049c1.033-0.507,1.98-1.166,2.812-1.951
		c-0.241-1.189-0.555-2.351-0.934-3.481C74.188,34.479,73.323,35.291,72.322,35.899"/>
</g>
</svg>
