<svg xmlns="http://www.w3.org/2000/svg" viewBox="0 0 391.99 392"><defs><style>.cls-1{fill:#fff;}</style></defs><title>Asset 1</title><g id="Layer_2" data-name="Layer 2"><g id="Layer_1-2" data-name="Layer 1"><path class="cls-1" d="M383.52,264a16.1,16.1,0,0,0-21.44,6.48C332.16,326.24,272.4,361,206.24,361,110,361,31.6,287,31.6,196S110,31,206.32,31c38.48,0,90.32,16.24,119.44,52.64C346,109,351.84,139.52,343,174.56c-9.6,38.4-27.6,65.12-53.44,79.36a82.67,82.67,0,0,1-38.88,10.48c1.2-11,5.36-35.28,18.56-88.56C279.84,133.2,291,93.2,291,92.8a15.43,15.43,0,0,0-11.12-19,15.89,15.89,0,0,0-19.44,10.88c-.08.24-3.28,11.76-7.84,29-10.08-20.32-26.4-35.76-47.52-42.32C156.56,56.16,101,93.68,81.12,155s3.36,123.36,52,138.48c29,9,60.56-.72,85.44-23.2-.16,6.4.72,17.6,11.36,22.08,11.6,4.88,41,5.44,69.84-8.64,25.2-12.32,58.4-39.92,73.92-101.76,11-44.08,3-84.72-23.12-117.44C334.32,44.32,311.28,27.52,284,16A205.92,205.92,0,0,0,206.16,0c-55,0-106.72,20.32-145.68,57.2C21.52,94.24,0,143.52,0,196S21.52,297.76,60.64,334.8c39,36.88,90.72,57.2,145.68,57.2a213.22,213.22,0,0,0,109.12-29.68,200.64,200.64,0,0,0,74.72-77.44A15.27,15.27,0,0,0,383.52,264ZM143,263C111.12,253.12,97,209,111.36,164.48s52-72.64,83.92-62.72,46.08,54.08,31.68,98.56S175,273,143,263Zm0,0"/></g></g></svg>