<?xml version="1.0" encoding="UTF-8"?>
<svg width="26px" height="27px" viewBox="0 0 26 27" version="1.1" xmlns="http://www.w3.org/2000/svg" xmlns:xlink="http://www.w3.org/1999/xlink">
    <!-- Generator: Sketch 42 (36781) - http://www.bohemiancoding.com/sketch -->
    <title>lupa</title>
    <desc>Created with Sketch.</desc>
    <defs></defs>
    <g id="Page-1" stroke="none" stroke-width="1" fill="none" fill-rule="evenodd">
        <g id="lupa" fill="#FFFFFF">
            <path d="M25.5,24.1 L20.2,18.8 C21.7,16.9 22.6,14.5 22.6,11.9 C22.6,5.7 17.6,0.7 11.4,0.7 C5.2,0.7 0.2,5.7 0.2,11.9 C0.2,18.1 5.2,23.1 11.4,23.1 C13.8,23.1 16.1,22.3 17.9,21 L23.3,26.4 C23.9,27 24.9,27 25.6,26.4 C26.1,25.7 26.1,24.7 25.5,24.1 L25.5,24.1 Z M17.6,17.5 C17.4,17.6 17.2,17.7 17,17.9 C16.8,18.1 16.7,18.2 16.6,18.4 C15.2,19.6 13.3,20.3 11.3,20.3 C6.7,20.3 2.9,16.5 2.9,11.9 C2.9,7.3 6.7,3.5 11.3,3.5 C15.9,3.5 19.7,7.3 19.7,11.9 C19.8,14 18.9,16 17.6,17.5 L17.6,17.5 Z" id="Shape"></path>
        </g>
    </g>
</svg>