<svg xmlns="http://www.w3.org/2000/svg" viewBox="0 0 139 139"><defs><style>.cls-1{fill:#fff;}</style></defs><title>envelop-contact</title><g id="Layer_2" data-name="Layer 2"><g id="Layer_1-2" data-name="Layer 1"><path class="cls-1" d="M69.5,3.5a66,66,0,1,1-66,66,66.07,66.07,0,0,1,66-66m0-3.5A69.5,69.5,0,1,0,139,69.5,69.5,69.5,0,0,0,69.5,0Z"/><path class="cls-1" d="M100.91,70.32A1.1,1.1,0,0,0,102,69.21V59.57a1.13,1.13,0,0,0-.38-.85S89.3,47.59,89.21,47.54V38.22A2.28,2.28,0,0,0,87,35.92H76.33c-.06-.13-6.11-5.65-6.11-5.65a1.08,1.08,0,0,0-1.45,0s-6,5.52-6.11,5.65H52a2.28,2.28,0,0,0-2.25,2.3v9.3c-.07,0-12.42,11.21-12.42,11.21a1.13,1.13,0,0,0-.38.85V99.89A1.11,1.11,0,0,0,38.09,101h62.83A1.11,1.11,0,0,0,102,99.89V75a1.09,1.09,0,1,0-2.18,0V97.49L76,76.84,99.82,61.58v7.62A1.1,1.1,0,0,0,100.91,70.32ZM99.1,59.42l-9.9,6.35V50.45ZM69.5,32.59l3.68,3.33H65.82ZM63,76.84,39.18,97.49V61.58ZM41,98.78,69.5,74.08,98,98.78Zm29.16-27a1.07,1.07,0,0,0-1.41,0l-4.1,3.56L52,67.17V61.89a1.09,1.09,0,1,0-2.18,0v3.88l-9.9-6.35,9.9-9v5.81a1.09,1.09,0,1,0,2.18,0v-18a.07.07,0,0,1,.07-.07H87a.07.07,0,0,1,.07.07V67.17L74.31,75.33Z"/></g></g></svg>