<?xml version="1.0" encoding="UTF-8"?>
<svg width="92px" height="62px" viewBox="0 0 92 62" version="1.1" xmlns="http://www.w3.org/2000/svg" xmlns:xlink="http://www.w3.org/1999/xlink">
    <!-- Generator: Sketch 42 (36781) - http://www.bohemiancoding.com/sketch -->
    <title>ojo</title>
    <desc>Created with Sketch.</desc>
    <defs></defs>
    <g id="Page-1" stroke="none" stroke-width="1" fill="none" fill-rule="evenodd">
        <g id="ojo" fill-rule="nonzero" fill="#FFFFFF">
            <g id="Group">
                <path d="M14.5,3 L24,12.5 C16.2,16.3 8.4,22.3 0.8,30.3 L0.9,30.4 L0.8,30.5 C15.2,45.6 30,53.4 44.9,53.6 L45.5,53.6 C51,53.6 56.5,52.6 62,50.5 L73,61.5 L75.6,58.9 L17,0.5 L14.5,3 Z M45.4,50 L44.9,50 C31.8,49.8 18.7,43.3 5.8,30.5 C12.7,23.6 19.7,18.6 26.7,15.3 L33.6,22.2 C32,24.6 31,27.4 31,30.5 C31,38.5 37.5,45 45.6,45 C48.7,45 51.5,44 53.9,42.4 L59.1,47.6 C54.5,49.2 49.9,50 45.4,50 Z M51.2,39.8 C49.5,40.8 47.6,41.4 45.5,41.4 C39.4,41.4 34.5,36.5 34.5,30.4 C34.5,28.3 35.1,26.4 36.1,24.7 L51.2,39.8 Z" id="Shape"></path>
                <path d="M59.1,35.9 C59.8,34.2 60.2,32.4 60.2,30.4 C60.2,22.3 53.6,15.8 45.6,15.8 C43.7,15.8 41.8,16.2 40.1,16.9 L43,19.8 C43.8,19.6 44.7,19.5 45.6,19.5 C51.7,19.5 56.6,24.4 56.6,30.5 C56.6,31.4 56.5,32.3 56.3,33.1 L59.1,35.9 Z" id="Shape"></path>
                <path d="M91.3,30.3 C75.7,14.8 60.1,7.1 44.8,7.3 C40.7,7.4 36.6,8 32.4,9.2 L35.4,12.2 C38.5,11.4 41.7,11 44.8,10.9 L45.3,10.9 C58.6,10.9 72.2,17.5 86,30.4 C79.7,36.3 73.5,40.9 67.3,44.1 L70,46.8 C77,43 84.1,37.6 91.2,30.5 L91.3,30.3 L91.3,30.3 Z" id="Shape"></path>
            </g>
        </g>
    </g>
</svg>